<svg width="27" height="19" viewBox="0 0 27 19" fill="none" xmlns="http://www.w3.org/2000/svg">
<path d="M5.15216 18.88C3.40282 18.88 2.12282 18.4747 1.31216 17.664C0.544156 16.8107 0.160156 15.7653 0.160156 14.528V13.312C0.160156 12.16 0.330823 11.008 0.672156 9.85601C1.01349 8.66135 1.46149 7.50935 2.01616 6.40001C2.61349 5.29068 3.31749 4.24534 4.12816 3.26401C4.93882 2.28268 5.81349 1.40801 6.75216 0.640015H12.2562C10.8908 1.96268 9.73882 3.26401 8.80016 4.54401C7.86149 5.82401 7.15749 7.25335 6.68816 8.83201C7.92549 9.08801 8.82149 9.62135 9.37616 10.432C9.93082 11.2 10.2082 12.096 10.2082 13.12V14.528C10.2082 15.7653 9.80282 16.8107 8.99216 17.664C8.22416 18.4747 6.94416 18.88 5.15216 18.88ZM19.5522 18.88C17.8028 18.88 16.5228 18.4747 15.7122 17.664C14.9442 16.8107 14.5602 15.7653 14.5602 14.528V13.312C14.5602 12.16 14.7308 11.008 15.0722 9.85601C15.4135 8.66135 15.8615 7.50935 16.4162 6.40001C17.0135 5.29068 17.7175 4.24534 18.5282 3.26401C19.3388 2.28268 20.2135 1.40801 21.1522 0.640015H26.6562C25.2908 1.96268 24.1388 3.26401 23.2002 4.54401C22.2615 5.82401 21.5575 7.25335 21.0882 8.83201C22.3255 9.08801 23.2215 9.62135 23.7762 10.432C24.3308 11.2 24.6082 12.096 24.6082 13.12V14.528C24.6082 15.7653 24.2028 16.8107 23.3922 17.664C22.6242 18.4747 21.3442 18.88 19.5522 18.88Z" fill="#9C9C9C"/>
</svg>
