<svg width="33" height="36" viewBox="0 0 33 36" fill="none" xmlns="http://www.w3.org/2000/svg">
<path d="M21.3927 27.038C24.7059 26.6457 27.9612 25.8638 31.0911 24.7085C28.4405 21.7724 26.9758 17.9558 26.9816 14.0001V12.7554V12.6665C26.9816 9.8368 25.8576 7.12303 23.8567 5.12215C21.8558 3.12127 19.142 1.99719 16.3124 1.99719C13.4827 1.99719 10.7689 3.12127 8.76805 5.12215C6.76717 7.12303 5.64309 9.8368 5.64309 12.6665V14.0001C5.64845 17.956 4.18315 21.7726 1.53186 24.7085C4.6135 25.8466 7.8623 26.6379 11.232 27.038M21.3927 27.038C18.0177 27.4383 14.6071 27.4383 11.232 27.038H21.3927ZM21.3927 27.038C21.649 27.8379 21.7127 28.6871 21.5787 29.5163C21.4447 30.3456 21.1168 31.1314 20.6217 31.81C20.1265 32.4885 19.4781 33.0405 18.7293 33.4211C17.9805 33.8017 17.1524 34 16.3124 34C15.4724 34 14.6443 33.8017 13.8954 33.4211C13.1466 33.0405 12.4982 32.4885 12.0031 31.81C11.5079 31.1314 11.18 30.3456 11.046 29.5163C10.912 28.6871 10.9758 27.8379 11.232 27.038" fill="#0F172F"/>
<path d="M21.3927 27.038C24.7059 26.6457 27.9612 25.8638 31.0911 24.7085C28.4405 21.7724 26.9758 17.9558 26.9816 14.0001V12.7554V12.6665C26.9816 9.8368 25.8576 7.12303 23.8567 5.12215C21.8558 3.12127 19.142 1.99719 16.3124 1.99719C13.4827 1.99719 10.7689 3.12127 8.76805 5.12215C6.76717 7.12303 5.64309 9.8368 5.64309 12.6665V14.0001C5.64845 17.956 4.18315 21.7726 1.53186 24.7085C4.6135 25.8466 7.8623 26.6379 11.232 27.038M21.3927 27.038C18.0177 27.4383 14.6071 27.4383 11.232 27.038M21.3927 27.038C21.649 27.8379 21.7127 28.6871 21.5787 29.5163C21.4447 30.3456 21.1168 31.1314 20.6217 31.81C20.1265 32.4885 19.4781 33.0405 18.7293 33.4211C17.9805 33.8017 17.1524 34 16.3124 34C15.4724 34 14.6443 33.8017 13.8954 33.4211C13.1466 33.0405 12.4982 32.4885 12.0031 31.81C11.5079 31.1314 11.18 30.3456 11.046 29.5163C10.912 28.6871 10.9758 27.8379 11.232 27.038" stroke="white" stroke-width="2.76923" stroke-linecap="round" stroke-linejoin="round"/>
</svg>
