<svg width="27" height="19" viewBox="0 0 27 19" fill="none" xmlns="http://www.w3.org/2000/svg">
<path d="M7.104 0C8.85333 0 10.112 0.426668 10.88 1.28C11.6907 2.09067 12.096 3.11467 12.096 4.352V5.568C12.096 6.72 11.9253 7.89333 11.584 9.088C11.2853 10.24 10.8373 11.3707 10.24 12.48C9.64267 13.5893 8.93867 14.6347 8.128 15.616C7.31733 16.5973 6.44267 17.472 5.504 18.24H0C1.36533 16.96 2.51733 15.68 3.456 14.4C4.39467 13.0773 5.09867 11.6267 5.568 10.048C4.33067 9.83467 3.43467 9.344 2.88 8.576C2.32533 7.76533 2.048 6.82667 2.048 5.76V4.352C2.048 3.11467 2.432 2.09067 3.2 1.28C4.01067 0.426668 5.312 0 7.104 0ZM21.504 0C23.2533 0 24.512 0.426668 25.28 1.28C26.0907 2.09067 26.496 3.11467 26.496 4.352V5.568C26.496 6.72 26.3253 7.89333 25.984 9.088C25.6853 10.24 25.2373 11.3707 24.64 12.48C24.0427 13.5893 23.3387 14.6347 22.528 15.616C21.7173 16.5973 20.8427 17.472 19.904 18.24H14.4C15.7653 16.96 16.9173 15.68 17.856 14.4C18.7947 13.0773 19.4987 11.6267 19.968 10.048C18.7307 9.83467 17.8347 9.344 17.28 8.576C16.7253 7.76533 16.448 6.82667 16.448 5.76V4.352C16.448 3.11467 16.832 2.09067 17.6 1.28C18.4107 0.426668 19.712 0 21.504 0Z" fill="#9C9C9C"/>
</svg>
