<svg width="48" height="48" viewBox="0 0 48 48" fill="none" xmlns="http://www.w3.org/2000/svg">
<path d="M24 9.33333V24H35M46 24C46 26.8891 45.431 29.7499 44.3254 32.419C43.2197 35.0882 41.5992 37.5135 39.5563 39.5563C37.5135 41.5992 35.0882 43.2197 32.419 44.3254C29.7499 45.431 26.8891 46 24 46C21.1109 46 18.2501 45.431 15.581 44.3254C12.9118 43.2197 10.4865 41.5992 8.44365 39.5563C6.40076 37.5135 4.78025 35.0882 3.67465 32.419C2.56905 29.7499 2 26.8891 2 24C2 18.1652 4.31785 12.5695 8.44365 8.44365C12.5695 4.31785 18.1652 2 24 2C29.8348 2 35.4305 4.31785 39.5563 8.44365C43.6821 12.5695 46 18.1652 46 24Z" fill="#0F172F"/>
<path d="M24 9.33333V24H35M46 24C46 26.8891 45.431 29.7499 44.3254 32.419C43.2197 35.0882 41.5992 37.5135 39.5563 39.5563C37.5135 41.5992 35.0882 43.2197 32.419 44.3254C29.7499 45.431 26.8891 46 24 46C21.1109 46 18.2501 45.431 15.581 44.3254C12.9118 43.2197 10.4865 41.5992 8.44365 39.5563C6.40076 37.5135 4.78025 35.0882 3.67465 32.419C2.56905 29.7499 2 26.8891 2 24C2 18.1652 4.31785 12.5695 8.44365 8.44365C12.5695 4.31785 18.1652 2 24 2C29.8348 2 35.4305 4.31785 39.5563 8.44365C43.6821 12.5695 46 18.1652 46 24Z" stroke="white" stroke-width="2.76923" stroke-linecap="round" stroke-linejoin="round"/>
</svg>
