<svg width="49" height="39" viewBox="0 0 49 39" fill="none" xmlns="http://www.w3.org/2000/svg">
<path d="M24.2628 29.9568V14.2712ZM24.2628 14.2712L31.2342 21.2426ZM24.2628 14.2712L17.2914 21.2426ZM12.0629 36.9281C9.57513 36.9308 7.16789 36.0465 5.27348 34.434C3.37908 32.8215 2.12163 30.5864 1.72694 28.1301C1.33226 25.6738 1.82621 23.1573 3.12008 21.0325C4.41395 18.9076 6.42297 17.3137 8.78636 16.5369C8.17916 13.4257 8.80671 10.2004 10.5361 7.54387C12.2656 4.88734 14.9611 3.00825 18.0518 2.3045C21.1426 1.60075 24.3859 2.12761 27.0949 3.77351C29.804 5.41942 31.7661 8.05511 32.5657 11.1225C33.802 10.7204 35.1261 10.672 36.3884 10.9828C37.6507 11.2936 38.801 11.9511 39.7093 12.8812C40.6176 13.8113 41.2478 14.9768 41.5286 16.2461C41.8094 17.5154 41.7297 18.838 41.2985 20.0644C43.2009 20.7911 44.7889 22.1607 45.787 23.9357C46.7852 25.7107 47.1306 27.7792 46.7632 29.7822C46.3958 31.7852 45.3389 33.5964 43.7758 34.9017C42.2127 36.207 40.242 36.9239 38.2055 36.9281H12.0629Z" fill="#0F172F"/>
<path d="M24.2628 29.9568V14.2712M24.2628 14.2712L31.2342 21.2426M24.2628 14.2712L17.2914 21.2426M12.0629 36.9281C9.57513 36.9308 7.16789 36.0465 5.27348 34.434C3.37908 32.8215 2.12163 30.5864 1.72694 28.1301C1.33226 25.6738 1.82621 23.1573 3.12008 21.0325C4.41395 18.9076 6.42297 17.3137 8.78636 16.5369C8.17916 13.4257 8.80671 10.2004 10.5361 7.54387C12.2656 4.88734 14.9611 3.00825 18.0518 2.3045C21.1426 1.60075 24.3859 2.12761 27.0949 3.77351C29.804 5.41942 31.7661 8.05511 32.5657 11.1225C33.802 10.7204 35.1261 10.672 36.3884 10.9828C37.6507 11.2936 38.801 11.9511 39.7093 12.8812C40.6176 13.8113 41.2478 14.9768 41.5286 16.2461C41.8094 17.5154 41.7297 18.838 41.2985 20.0644C43.2009 20.7911 44.7889 22.1607 45.787 23.9357C46.7852 25.7107 47.1306 27.7792 46.7632 29.7822C46.3958 31.7852 45.3389 33.5964 43.7758 34.9017C42.2127 36.207 40.242 36.9239 38.2055 36.9281H12.0629Z" stroke="white" stroke-width="2.76923" stroke-linecap="round" stroke-linejoin="round"/>
</svg>
