<svg width="36" height="34" viewBox="0 0 36 34" fill="none" xmlns="http://www.w3.org/2000/svg">
<path d="M31.75 11.185C33.2233 11.6583 34.25 13.065 34.25 14.68V21.8233C34.25 23.7167 32.8383 25.3233 30.95 25.4783C30.3833 25.5233 29.8167 25.565 29.25 25.5983V30.75L24.25 25.75C21.9933 25.75 19.76 25.6583 17.55 25.4783C17.0689 25.4394 16.6009 25.3022 16.175 25.075M31.75 11.185C31.4925 11.1021 31.2263 11.049 30.9567 11.0267C26.4932 10.6561 22.0068 10.6561 17.5433 11.0267C15.6583 11.1833 14.25 12.7883 14.25 14.68V21.8233C14.25 23.2183 15.0167 24.4567 16.175 25.075M31.75 11.185V8.06167C31.75 5.36 29.83 3.01834 27.15 2.67C23.7014 2.22299 20.2275 1.99919 16.75 2C13.225 2 9.75333 2.22834 6.35 2.67C3.67 3.01834 1.75 5.36 1.75 8.06167V18.4383C1.75 21.14 3.67 23.4817 6.35 23.83C7.31167 23.955 8.27833 24.0633 9.25 24.1533V32L16.175 25.075" fill="#0F172F"/>
<path d="M31.75 11.185C33.2233 11.6583 34.25 13.065 34.25 14.68V21.8233C34.25 23.7167 32.8383 25.3233 30.95 25.4783C30.3833 25.5233 29.8167 25.565 29.25 25.5983V30.75L24.25 25.75C21.9933 25.75 19.76 25.6583 17.55 25.4783C17.0689 25.4394 16.6009 25.3022 16.175 25.075M31.75 11.185C31.4925 11.1021 31.2263 11.049 30.9567 11.0267C26.4932 10.6561 22.0068 10.6561 17.5433 11.0267C15.6583 11.1833 14.25 12.7883 14.25 14.68V21.8233C14.25 23.2183 15.0167 24.4567 16.175 25.075M31.75 11.185V8.06167C31.75 5.36 29.83 3.01834 27.15 2.67C23.7014 2.22299 20.2275 1.99919 16.75 2C13.225 2 9.75333 2.22834 6.35 2.67C3.67 3.01834 1.75 5.36 1.75 8.06167V18.4383C1.75 21.14 3.67 23.4817 6.35 23.83C7.31167 23.955 8.27833 24.0633 9.25 24.1533V32L16.175 25.075" stroke="white" stroke-width="2.76923" stroke-linecap="round" stroke-linejoin="round"/>
</svg>
