<svg width="46" height="42" viewBox="0 0 46 42" fill="none" xmlns="http://www.w3.org/2000/svg">
<path d="M10.75 10.75L17.75 16L10.75 21.25M21.25 21.25H28.25ZM7.25 40.5H38.75C40.1424 40.5 41.4777 39.9469 42.4623 38.9623C43.4469 37.9777 44 36.6424 44 35.25V7.25C44 5.85761 43.4469 4.52226 42.4623 3.53769C41.4777 2.55312 40.1424 2 38.75 2H7.25C5.85761 2 4.52226 2.55312 3.53769 3.53769C2.55312 4.52226 2 5.85761 2 7.25V35.25C2 36.6424 2.55312 37.9777 3.53769 38.9623C4.52226 39.9469 5.85761 40.5 7.25 40.5Z" fill="#0F172F"/>
<path d="M10.75 10.75L17.75 16L10.75 21.25M21.25 21.25H28.25M7.25 40.5H38.75C40.1424 40.5 41.4777 39.9469 42.4623 38.9623C43.4469 37.9777 44 36.6424 44 35.25V7.25C44 5.85761 43.4469 4.52226 42.4623 3.53769C41.4777 2.55312 40.1424 2 38.75 2H7.25C5.85761 2 4.52226 2.55312 3.53769 3.53769C2.55312 4.52226 2 5.85761 2 7.25V35.25C2 36.6424 2.55312 37.9777 3.53769 38.9623C4.52226 39.9469 5.85761 40.5 7.25 40.5Z" stroke="white" stroke-width="2.76923" stroke-linecap="round" stroke-linejoin="round"/>
</svg>
