<svg width="40" height="36" viewBox="0 0 40 36" fill="none" xmlns="http://www.w3.org/2000/svg">
<path d="M10.0917 16.1539C11.5797 16.1539 12.9218 15.3305 13.8412 14.16C15.2743 12.3316 17.0733 10.8225 19.1231 9.72925C20.4578 9.02032 21.6154 7.96432 22.1748 6.56309C22.5676 5.5814 22.7694 4.53371 22.7692 3.47633V2.30771C22.7692 1.94049 22.9151 1.58831 23.1748 1.32864C23.4344 1.06897 23.7866 0.923096 24.1538 0.923096C25.2555 0.923096 26.3121 1.36073 27.0911 2.13973C27.8701 2.91873 28.3077 3.97527 28.3077 5.07694C28.3077 7.20371 27.8277 9.21786 26.9729 11.0179C26.4818 12.048 27.1705 13.3846 28.3114 13.3846H34.0825C35.9766 13.3846 37.6732 14.6659 37.8745 16.5508C37.9575 17.3299 38 18.12 38 18.9231C38.0076 23.9748 36.2813 28.8761 33.1095 32.808C32.3932 33.6978 31.2874 34.1539 30.1465 34.1539H22.7323C21.8406 34.1539 20.9526 34.0098 20.1052 33.7292L14.3563 31.8092C13.5091 31.5275 12.6221 31.3841 11.7292 31.3846H8.74585M24.1538 13.3846H28.3077H24.1538ZM8.74585 31.3846C8.89908 31.7631 9.06523 32.1323 9.24431 32.496C9.608 33.2345 9.10031 34.1539 8.27877 34.1539H6.60247C4.96124 34.1539 3.44001 33.1975 2.96185 31.6283C2.32243 29.5297 1.99827 27.3477 2.00001 25.1539C2.00001 22.2868 2.54462 19.5489 3.53416 17.0345C4.09908 15.6056 5.53908 14.7692 7.07693 14.7692H9.02093C9.89231 14.7692 10.3963 15.7957 9.944 16.5416C8.36719 19.1372 7.53556 22.1168 7.54031 25.1539C7.54031 27.3582 7.96862 29.4609 8.7477 31.3846H8.74585Z" fill="#0F172F"/>
<path d="M10.0917 16.1539C11.5797 16.1539 12.9218 15.3305 13.8412 14.16C15.2743 12.3316 17.0733 10.8225 19.1231 9.72925C20.4578 9.02032 21.6154 7.96432 22.1748 6.56309C22.5676 5.5814 22.7694 4.53371 22.7692 3.47633V2.30771C22.7692 1.94049 22.9151 1.58831 23.1748 1.32864C23.4344 1.06897 23.7866 0.923096 24.1538 0.923096C25.2555 0.923096 26.3121 1.36073 27.0911 2.13973C27.8701 2.91873 28.3077 3.97527 28.3077 5.07694C28.3077 7.20371 27.8277 9.21786 26.9729 11.0179C26.4818 12.048 27.1705 13.3846 28.3114 13.3846H34.0825C35.9766 13.3846 37.6732 14.6659 37.8745 16.5508C37.9575 17.3299 38 18.12 38 18.9231C38.0076 23.9748 36.2813 28.8761 33.1095 32.808C32.3932 33.6979 31.2874 34.1539 30.1465 34.1539H22.7323C21.8406 34.1539 20.9526 34.0099 20.1052 33.7292L14.3563 31.8092C13.5091 31.5275 12.6221 31.3841 11.7292 31.3846H8.74585M8.74585 31.3846C8.89908 31.7631 9.06523 32.1323 9.24431 32.496C9.608 33.2345 9.10031 34.1539 8.27877 34.1539H6.60247C4.96124 34.1539 3.44001 33.1975 2.96185 31.6283C2.32243 29.5297 1.99827 27.3477 2.00001 25.1539C2.00001 22.2868 2.54462 19.5489 3.53416 17.0345C4.09908 15.6056 5.53908 14.7692 7.07693 14.7692H9.02093C9.89231 14.7692 10.3963 15.7957 9.944 16.5416C8.36719 19.1372 7.53556 22.1168 7.54031 25.1539C7.54031 27.3582 7.96862 29.4609 8.7477 31.3846H8.74585ZM24.1538 13.3846H28.3077" stroke="white" stroke-width="2.76923" stroke-linecap="round" stroke-linejoin="round"/>
</svg>
