<svg width="124" height="123" viewBox="0 0 124 123" fill="none" xmlns="http://www.w3.org/2000/svg">
<rect x="0.793213" y="0.0664062" width="122.908" height="122.908" fill="#1B1C1D"/>
<g clip-path="url(#clip0_80_2351)">
<path d="M41.169 71.1017C41.169 75.3406 37.7431 78.7665 33.5042 78.7665C29.2653 78.7665 25.8394 75.3406 25.8394 71.1017C25.8394 66.8628 29.2653 63.4369 33.5042 63.4369H41.169V71.1017ZM45.0014 71.1017C45.0014 66.8628 48.4274 63.4369 52.6662 63.4369C56.9051 63.4369 60.3311 66.8628 60.3311 71.1017V90.2638C60.3311 94.5026 56.9051 97.9286 52.6662 97.9286C48.4274 97.9286 45.0014 94.5026 45.0014 90.2638V71.1017Z" fill="#E01E5A"/>
<path d="M52.6662 40.3263C48.4273 40.3263 45.0014 36.9004 45.0014 32.6615C45.0014 28.4226 48.4273 24.9967 52.6662 24.9967C56.9051 24.9967 60.331 28.4226 60.331 32.6615V40.3263H52.6662ZM52.6662 44.2168C56.9051 44.2168 60.331 47.6428 60.331 51.8816C60.331 56.1205 56.9051 59.5465 52.6662 59.5465H33.4461C29.2072 59.5465 25.7812 56.1205 25.7812 51.8816C25.7812 47.6428 29.2072 44.2168 33.4461 44.2168H52.6662Z" fill="#36C5F0"/>
<path d="M83.3835 51.8816C83.3835 47.6428 86.8094 44.2168 91.0483 44.2168C95.2872 44.2168 98.7131 47.6428 98.7131 51.8816C98.7131 56.1205 95.2872 59.5465 91.0483 59.5465H83.3835V51.8816ZM79.5511 51.8816C79.5511 56.1205 76.1251 59.5465 71.8863 59.5465C67.6474 59.5465 64.2214 56.1205 64.2214 51.8816V32.6615C64.2214 28.4226 67.6474 24.9967 71.8863 24.9967C76.1251 24.9967 79.5511 28.4226 79.5511 32.6615V51.8816V51.8816Z" fill="#2EB67D"/>
<path d="M71.8863 82.5989C76.1251 82.5989 79.5511 86.0249 79.5511 90.2638C79.5511 94.5026 76.1251 97.9286 71.8863 97.9286C67.6474 97.9286 64.2214 94.5026 64.2214 90.2638V82.5989H71.8863ZM71.8863 78.7665C67.6474 78.7665 64.2214 75.3406 64.2214 71.1017C64.2214 66.8628 67.6474 63.4369 71.8863 63.4369H91.1064C95.3453 63.4369 98.7712 66.8628 98.7712 71.1017C98.7712 75.3406 95.3453 78.7665 91.1064 78.7665H71.8863Z" fill="#ECB22E"/>
</g>
<defs>
<clipPath id="clip0_80_2351">
<rect width="73.7449" height="73.7449" fill="white" transform="translate(25.3748 24.6483)"/>
</clipPath>
</defs>
</svg>
