<svg width="126" height="126" viewBox="0 0 126 126" fill="none" xmlns="http://www.w3.org/2000/svg">
<rect x="0.253174" y="0.0943604" width="125.494" height="125.494" fill="#FF3366"/>
<path d="M44.3166 44.9559C47.7648 44.9559 50.6253 42.2521 50.6253 38.7255C50.6253 35.1989 47.7256 32.4951 44.3166 32.4951C40.8683 32.4951 38.0078 35.1989 38.0078 38.7255C38.0078 42.2521 40.9075 44.9559 44.3166 44.9559V44.9559Z" fill="white"/>
<path d="M31.2291 78.3025C30.8765 79.8699 30.6806 81.594 30.6806 82.9655C30.6806 88.4514 33.6586 92.0955 39.9673 92.0955C45.2181 92.0955 49.4501 88.9999 52.5065 83.9451L50.6256 91.4294H61.0487L67.0048 67.5659C68.4938 61.5314 71.3543 58.3966 75.743 58.3966C79.1913 58.3966 81.3073 60.5518 81.3073 64.0784C81.3073 65.0972 81.2289 66.2336 80.837 67.4091L77.7806 78.3809C77.3104 79.9483 77.1145 81.5548 77.1145 83.0439C77.1145 88.2554 80.1709 92.0564 86.5972 92.0564C92.0831 92.0564 96.4326 88.5297 98.862 80.0658L94.7868 78.4984C92.7492 84.1802 90.9859 85.199 89.5753 85.199C88.1646 85.199 87.4201 84.2586 87.4201 82.4169C87.4201 81.594 87.616 80.6536 87.8903 79.5172L90.8683 68.8198C91.6129 66.312 91.8871 64.0784 91.8871 62.0408C91.8871 54.0471 87.0674 49.8936 81.1897 49.8936C75.7038 49.8936 70.1396 54.8308 67.3575 60.0424L69.3951 50.7164H53.4861L51.2526 58.9452H58.6977L54.113 77.2837C50.508 85.2774 43.925 85.3949 43.1021 85.2382C41.7307 84.9247 40.8686 84.4153 40.8686 82.652C40.8686 81.6332 41.0645 80.1834 41.5347 78.3809L48.5096 50.7164H30.8373L28.6038 58.9452H35.9313L31.2291 78.3025Z" fill="white"/>
</svg>
