<svg width="126" height="126" viewBox="0 0 126 126" fill="none" xmlns="http://www.w3.org/2000/svg">
<rect x="0.505981" y="0.06604" width="125.494" height="125.494" fill="url(#paint0_linear_80_2375)"/>
<g clip-path="url(#clip0_80_2375)">
<path fill-rule="evenodd" clip-rule="evenodd" d="M90.6198 25.4694H34.961C30.1728 25.4694 26.2894 29.3475 26.2829 34.1357V89.7123C26.2736 92.0201 27.1838 94.2365 28.8123 95.8716C30.4407 97.5064 32.6533 98.4256 34.961 98.4256H90.6198C92.9253 98.4224 95.1349 97.502 96.7608 95.8672C98.3866 94.2327 99.2954 92.0181 99.2861 89.7123V34.1357C99.2794 29.3521 95.4031 25.4758 90.6198 25.4694ZM57.7671 78.017C57.7642 78.7882 57.454 79.5267 56.9052 80.0686C56.3564 80.6107 55.6145 80.9119 54.8433 80.9058H42.68C41.0891 80.8994 39.8029 79.6078 39.8029 78.017V41.8196C39.8029 40.2287 41.0891 38.9373 42.68 38.9308H54.8433C56.4361 38.9372 57.7257 40.2268 57.732 41.8196L57.7671 78.017ZM85.8361 61.3977C85.8361 62.17 85.5271 62.9103 84.9777 63.453C84.4284 63.9957 83.6847 64.296 82.9123 64.2867H70.749C69.1562 64.2801 67.8666 62.9905 67.8603 61.3977V41.8196C67.8666 40.2268 69.1562 38.9372 70.749 38.9308H82.9123C84.5031 38.9373 85.7895 40.2287 85.7895 41.8196L85.8361 61.3977Z" fill="white"/>
</g>
<defs>
<linearGradient id="paint0_linear_80_2375" x1="63.3131" y1="125.56" x2="63.3131" y2="0.06604" gradientUnits="userSpaceOnUse">
<stop stop-color="#0052CC"/>
<stop offset="1" stop-color="#2684FF"/>
</linearGradient>
<clipPath id="clip0_80_2375">
<rect width="75.2964" height="75.2964" fill="white" transform="translate(25.6049 25.1653)"/>
</clipPath>
</defs>
</svg>
