<svg width="126" height="127" viewBox="0 0 126 127" fill="none" xmlns="http://www.w3.org/2000/svg">
<rect x="0.505981" y="0.571777" width="125.494" height="125.494" fill="#0A66C2"/>
<path d="M97.1308 92.1815H83.3597V70.5775C83.3597 65.4259 83.2679 58.7941 76.1972 58.7941C69.0247 58.7941 67.9274 64.407 67.9274 70.2025V92.18H54.1562V47.7536H67.3765V53.8249H67.5616C68.8846 51.5589 70.7965 49.6947 73.0934 48.431C75.3905 47.1671 77.9866 46.5512 80.6054 46.6485C94.5631 46.6485 97.1366 55.8453 97.1366 67.8098L97.1308 92.1815ZM38.6177 41.6808C37.0372 41.6811 35.492 41.2119 34.1777 40.3324C32.8633 39.453 31.8388 38.2029 31.2337 36.7402C30.6285 35.2775 30.47 33.6679 30.778 32.1149C31.0861 30.5619 31.8469 29.1353 32.9644 28.0154C34.0819 26.8957 35.5056 26.133 37.0559 25.8238C38.606 25.5146 40.2129 25.6729 41.6732 26.2785C43.1337 26.8842 44.382 27.9101 45.2603 29.2264C46.1387 30.5427 46.6076 32.0905 46.6079 33.6738C46.608 34.7251 46.4016 35.7662 46.0001 36.7375C45.5987 37.7089 45.0101 38.5915 44.2682 39.335C43.5263 40.0785 42.6454 40.6684 41.6759 41.0709C40.7064 41.4734 39.6672 41.6806 38.6177 41.6808ZM45.5033 92.1815H31.7178V47.7536H45.5033V92.1815Z" fill="white"/>
<path d="M97.1308 92.1815H83.3597V70.5775C83.3597 65.4259 83.2679 58.7941 76.1972 58.7941C69.0247 58.7941 67.9274 64.407 67.9274 70.2025V92.18H54.1562V47.7536H67.3765V53.8249H67.5616C68.8846 51.5589 70.7965 49.6947 73.0934 48.431C75.3905 47.1671 77.9866 46.5512 80.6054 46.6485C94.5631 46.6485 97.1366 55.8453 97.1366 67.8098L97.1308 92.1815ZM38.6177 41.6808C37.0372 41.6811 35.492 41.2119 34.1777 40.3324C32.8633 39.453 31.8388 38.2029 31.2337 36.7402C30.6285 35.2775 30.47 33.6679 30.778 32.1149C31.0861 30.5619 31.8469 29.1353 32.9644 28.0154C34.0819 26.8957 35.5056 26.133 37.0559 25.8238C38.606 25.5146 40.2129 25.6729 41.6732 26.2785C43.1337 26.8842 44.382 27.9101 45.2603 29.2264C46.1387 30.5427 46.6076 32.0905 46.6079 33.6738C46.608 34.7251 46.4016 35.7662 46.0001 36.7375C45.5987 37.7089 45.0101 38.5915 44.2682 39.335C43.5263 40.0785 42.6454 40.6684 41.6759 41.0709C40.7064 41.4734 39.6672 41.6806 38.6177 41.6808ZM45.5033 92.1815H31.7178V47.7536H45.5033V92.1815Z" fill="white"/>
</svg>
