<svg width="125" height="125" viewBox="0 0 125 125" fill="none" xmlns="http://www.w3.org/2000/svg">
<rect width="124.542" height="124.542" fill="#0B1020"/>
<path d="M63.184 51.5511C65.3352 51.9633 67.361 52.8916 69.0914 54.2579C70.8217 55.6243 72.206 57.3888 73.1279 59.4034C74.0499 61.4179 74.4825 63.6235 74.3896 65.835C74.2966 68.0465 73.6808 70.1992 72.5938 72.1124L62.9931 89.0239C61.1926 92.1955 58.2165 94.5037 54.7195 95.4407C51.2225 96.3777 47.491 95.8668 44.346 94.0204C41.201 92.174 38.9 89.1434 37.9492 85.5951C36.9985 82.0469 37.4759 78.2718 39.2764 75.1002L43.0249 68.4972M81.6462 56.1667L85.3947 49.5637C87.1952 46.3921 87.6726 42.617 86.7218 39.0688C85.7711 35.5206 83.4701 32.4899 80.325 30.6435C77.18 28.7971 73.4485 28.2862 69.9515 29.2232C66.4545 30.1602 63.4784 32.4684 61.6779 35.64L52.0772 52.5515C50.9902 54.4647 50.3744 56.6174 50.2815 58.8289C50.1885 61.0404 50.6212 63.246 51.5431 65.2606C52.4651 67.2751 53.8493 69.0396 55.5797 70.406C57.31 71.7724 59.3359 72.7006 61.4871 73.1128" stroke="white" stroke-width="5.93248" stroke-linecap="round" stroke-linejoin="round"/>
</svg>
