<svg width="125" height="125" viewBox="0 0 125 125" fill="none" xmlns="http://www.w3.org/2000/svg">
<rect x="0.793213" y="0.733276" width="123.701" height="123.701" fill="#3A48FF"/>
<path d="M80.5863 51.7677C80.5863 51.7677 74.5684 70.9577 74.078 72.5417C73.8997 70.9124 69.4866 36.47 69.4866 36.47C59.2339 36.47 53.7509 43.8925 50.8534 51.7224C50.8534 51.7224 43.5428 70.9577 42.9187 72.587C42.8741 71.0934 41.8043 51.9487 41.8043 51.9487C41.1802 42.3537 32.5323 36.5152 25.5337 36.5152L34.0033 88.6994C44.7464 88.6541 50.5414 81.2768 53.5726 73.4469C53.5726 73.4469 60.0363 56.4746 60.3038 55.7052C60.3483 56.4294 64.9398 88.6994 64.9398 88.6994C75.7274 88.6994 81.5224 81.7747 84.6428 74.2163L99.7544 36.5152C89.1005 36.5152 83.4838 43.8925 80.5863 51.7677Z" fill="white"/>
</svg>
