<svg width="126" height="126" viewBox="0 0 126 126" fill="none" xmlns="http://www.w3.org/2000/svg">
<rect x="0.505981" y="0.318848" width="125.494" height="125.494" fill="#5753F3"/>
<g clip-path="url(#clip0_80_2372)">
<path d="M100.452 58.4643H77.4083L97.3644 46.9475L93.4068 40.0929L73.4482 51.6096L84.9676 31.6633L78.1116 27.7068L66.5896 47.6481V24.6198H58.6695V47.6506L47.1476 27.7068L40.2888 31.6633L51.8083 51.6046L31.8547 40.0929L27.8947 46.9475L47.8508 58.4643H24.8069V66.3796H47.8483L27.8947 77.8965L31.8522 84.7509L51.8108 73.2343L40.2888 93.1805L47.1451 97.1372L58.6695 77.1932V100.222H66.5896V76.6993L78.3231 97.0111L84.7535 93.3015L73.0172 72.9849L93.4018 84.7483L97.3618 77.894L77.4083 66.3771H100.45V58.4643H100.452ZM62.6295 73.1813C61.2157 73.1815 59.8156 72.9034 58.5095 72.3626C57.2034 71.8218 56.0164 71.0291 55.0166 70.0297C54.0169 69.0305 53.2236 67.844 52.6825 66.5382C52.1413 65.2323 51.8627 63.8329 51.8625 62.4196C51.8622 61.006 52.1405 59.6062 52.6815 58.3004C53.2225 56.9946 54.0152 55.8078 55.0149 54.8083C56.0144 53.8088 57.2009 53.0159 58.5073 52.4748C59.8134 51.9337 61.2131 51.6552 62.627 51.655C65.4821 51.6547 68.2207 52.7882 70.2399 54.8066C72.2592 56.825 73.3938 59.5625 73.3941 62.417C73.3943 65.2713 72.2606 68.0093 70.2416 70.028C68.223 72.0469 65.4846 73.181 62.6295 73.1813Z" fill="white"/>
</g>
<defs>
<clipPath id="clip0_80_2372">
<rect width="75.6019" height="75.6019" fill="white" transform="translate(24.8069 24.6198)"/>
</clipPath>
</defs>
</svg>
