<svg width="124" height="125" viewBox="0 0 124 125" fill="none" xmlns="http://www.w3.org/2000/svg">
<rect x="0.253174" y="0.647827" width="123.701" height="123.701" fill="white"/>
<g clip-path="url(#clip0_80_2368)">
<path d="M95.4496 62.7637C95.4496 60.4666 95.2273 58.0954 94.8568 55.8723H62.771V68.9882H81.1481C80.4071 73.212 77.9617 76.9171 74.3308 79.2883L85.2978 87.8099C91.7446 81.8077 95.4496 73.0638 95.4496 62.7637Z" fill="#4280EF"/>
<path d="M62.7709 95.9612C71.9595 95.9612 79.666 92.923 85.2977 87.7359L74.3307 79.2884C71.2925 81.3632 67.3652 82.5488 62.7709 82.5488C53.8788 82.5488 46.3945 76.5466 43.6528 68.5437L32.3894 77.2135C38.1693 88.6992 49.8773 95.9612 62.7709 95.9612Z" fill="#34A353"/>
<path d="M43.6529 68.4696C42.245 64.2458 42.245 59.6516 43.6529 55.4278L32.3895 46.6838C27.573 56.317 27.573 67.6545 32.3895 77.2135L43.6529 68.4696Z" fill="#F6B704"/>
<path d="M62.7709 41.4227C67.5875 41.3486 72.33 43.2011 75.8127 46.5356L85.52 36.7543C79.3696 30.9744 71.2184 27.8621 62.7709 27.9362C49.8773 27.9362 38.1693 35.1982 32.3894 46.6838L43.6528 55.4278C46.3945 47.3508 53.8788 41.4227 62.7709 41.4227Z" fill="#E54335"/>
</g>
<defs>
<clipPath id="clip0_80_2368">
<rect width="66.6911" height="68.1731" fill="white" transform="translate(28.7585 27.8622)"/>
</clipPath>
</defs>
</svg>
