<svg width="1440" height="921" viewBox="0 0 1440 921" fill="none" xmlns="http://www.w3.org/2000/svg">
<g clip-path="url(#clip0_62_193)">
<rect width="1440" height="921" fill="#0A1020"/>
<rect width="68.5714" height="68.5714" stroke="white" stroke-opacity="0.06" stroke-width="1.37143"/>
<rect x="68.5715" width="68.5714" height="68.5714" stroke="white" stroke-opacity="0.06" stroke-width="1.37143"/>
<rect x="137.143" width="68.5714" height="68.5714" stroke="white" stroke-opacity="0.06" stroke-width="1.37143"/>
<rect x="205.714" width="68.5714" height="68.5714" stroke="white" stroke-opacity="0.06" stroke-width="1.37143"/>
<rect x="274.286" width="68.5714" height="68.5714" stroke="white" stroke-opacity="0.06" stroke-width="1.37143"/>
<rect x="342.857" width="68.5714" height="68.5714" stroke="white" stroke-opacity="0.06" stroke-width="1.37143"/>
<rect x="411.429" width="68.5714" height="68.5714" stroke="white" stroke-opacity="0.06" stroke-width="1.37143"/>
<rect x="480" width="68.5714" height="68.5714" stroke="white" stroke-opacity="0.06" stroke-width="1.37143"/>
<rect x="548.572" width="68.5714" height="68.5714" stroke="white" stroke-opacity="0.06" stroke-width="1.37143"/>
<rect x="617.143" width="68.5714" height="68.5714" stroke="white" stroke-opacity="0.06" stroke-width="1.37143"/>
<rect x="685.714" width="68.5714" height="68.5714" stroke="white" stroke-opacity="0.06" stroke-width="1.37143"/>
<rect x="754.286" width="68.5714" height="68.5714" stroke="white" stroke-opacity="0.06" stroke-width="1.37143"/>
<rect x="822.857" width="68.5714" height="68.5714" stroke="white" stroke-opacity="0.06" stroke-width="1.37143"/>
<rect x="891.428" width="68.5714" height="68.5714" stroke="white" stroke-opacity="0.06" stroke-width="1.37143"/>
<rect x="960" width="68.5714" height="68.5714" stroke="white" stroke-opacity="0.06" stroke-width="1.37143"/>
<rect x="1028.57" width="68.5714" height="68.5714" stroke="white" stroke-opacity="0.06" stroke-width="1.37143"/>
<rect x="1097.14" width="68.5714" height="68.5714" stroke="white" stroke-opacity="0.06" stroke-width="1.37143"/>
<rect x="1165.71" width="68.5714" height="68.5714" stroke="white" stroke-opacity="0.06" stroke-width="1.37143"/>
<rect x="1234.29" width="68.5714" height="68.5714" stroke="white" stroke-opacity="0.06" stroke-width="1.37143"/>
<rect x="1302.86" width="68.5714" height="68.5714" stroke="white" stroke-opacity="0.06" stroke-width="1.37143"/>
<rect x="1371.43" width="68.5714" height="68.5714" stroke="white" stroke-opacity="0.06" stroke-width="1.37143"/>
<rect y="68.5715" width="68.5714" height="68.5714" stroke="white" stroke-opacity="0.06" stroke-width="1.37143"/>
<rect x="68.5715" y="68.5715" width="68.5714" height="68.5714" stroke="white" stroke-opacity="0.06" stroke-width="1.37143"/>
<rect x="137.143" y="68.5715" width="68.5714" height="68.5714" fill="white" fill-opacity="0.05" stroke="white" stroke-opacity="0.06" stroke-width="1.37143"/>
<rect x="205.714" y="68.5715" width="68.5714" height="68.5714" stroke="white" stroke-opacity="0.06" stroke-width="1.37143"/>
<rect x="274.286" y="68.5715" width="68.5714" height="68.5714" stroke="white" stroke-opacity="0.06" stroke-width="1.37143"/>
<rect x="342.857" y="68.5715" width="68.5714" height="68.5714" stroke="white" stroke-opacity="0.06" stroke-width="1.37143"/>
<rect x="411.429" y="68.5715" width="68.5714" height="68.5714" stroke="white" stroke-opacity="0.06" stroke-width="1.37143"/>
<rect x="480" y="68.5715" width="68.5714" height="68.5714" stroke="white" stroke-opacity="0.06" stroke-width="1.37143"/>
<rect x="548.572" y="68.5715" width="68.5714" height="68.5714" stroke="white" stroke-opacity="0.06" stroke-width="1.37143"/>
<rect x="617.143" y="68.5715" width="68.5714" height="68.5714" fill="white" fill-opacity="0.05" stroke="white" stroke-opacity="0.06" stroke-width="1.37143"/>
<rect x="685.714" y="68.5715" width="68.5714" height="68.5714" stroke="white" stroke-opacity="0.06" stroke-width="1.37143"/>
<rect x="754.286" y="68.5715" width="68.5714" height="68.5714" stroke="white" stroke-opacity="0.06" stroke-width="1.37143"/>
<rect x="822.857" y="68.5715" width="68.5714" height="68.5714" stroke="white" stroke-opacity="0.06" stroke-width="1.37143"/>
<rect x="891.428" y="68.5715" width="68.5714" height="68.5714" stroke="white" stroke-opacity="0.06" stroke-width="1.37143"/>
<rect x="960" y="68.5715" width="68.5714" height="68.5714" stroke="white" stroke-opacity="0.06" stroke-width="1.37143"/>
<rect x="1028.57" y="68.5715" width="68.5714" height="68.5714" stroke="white" stroke-opacity="0.06" stroke-width="1.37143"/>
<rect x="1097.14" y="68.5715" width="68.5714" height="68.5714" stroke="white" stroke-opacity="0.06" stroke-width="1.37143"/>
<rect x="1165.71" y="68.5715" width="68.5714" height="68.5714" stroke="white" stroke-opacity="0.06" stroke-width="1.37143"/>
<rect x="1234.29" y="68.5715" width="68.5714" height="68.5714" stroke="white" stroke-opacity="0.06" stroke-width="1.37143"/>
<rect x="1302.86" y="68.5715" width="68.5714" height="68.5714" stroke="white" stroke-opacity="0.06" stroke-width="1.37143"/>
<rect x="1371.43" y="68.5715" width="68.5714" height="68.5714" stroke="white" stroke-opacity="0.06" stroke-width="1.37143"/>
<rect y="137.143" width="68.5714" height="68.5714" stroke="white" stroke-opacity="0.06" stroke-width="1.37143"/>
<rect x="68.5715" y="137.143" width="68.5714" height="68.5714" stroke="white" stroke-opacity="0.06" stroke-width="1.37143"/>
<rect x="137.143" y="137.143" width="68.5714" height="68.5714" stroke="white" stroke-opacity="0.06" stroke-width="1.37143"/>
<rect x="205.714" y="137.143" width="68.5714" height="68.5714" stroke="white" stroke-opacity="0.06" stroke-width="1.37143"/>
<rect x="274.286" y="137.143" width="68.5714" height="68.5714" stroke="white" stroke-opacity="0.06" stroke-width="1.37143"/>
<rect x="342.857" y="137.143" width="68.5714" height="68.5714" stroke="white" stroke-opacity="0.06" stroke-width="1.37143"/>
<rect x="411.429" y="137.143" width="68.5714" height="68.5714" stroke="white" stroke-opacity="0.06" stroke-width="1.37143"/>
<rect x="480" y="137.143" width="68.5714" height="68.5714" stroke="white" stroke-opacity="0.06" stroke-width="1.37143"/>
<rect x="548.572" y="137.143" width="68.5714" height="68.5714" stroke="white" stroke-opacity="0.06" stroke-width="1.37143"/>
<rect x="617.143" y="137.143" width="68.5714" height="68.5714" stroke="white" stroke-opacity="0.06" stroke-width="1.37143"/>
<rect x="685.714" y="137.143" width="68.5714" height="68.5714" stroke="white" stroke-opacity="0.06" stroke-width="1.37143"/>
<rect x="754.286" y="137.143" width="68.5714" height="68.5714" stroke="white" stroke-opacity="0.06" stroke-width="1.37143"/>
<rect x="822.857" y="137.143" width="68.5714" height="68.5714" stroke="white" stroke-opacity="0.06" stroke-width="1.37143"/>
<rect x="891.428" y="137.143" width="68.5714" height="68.5714" stroke="white" stroke-opacity="0.06" stroke-width="1.37143"/>
<rect x="960" y="137.143" width="68.5714" height="68.5714" stroke="white" stroke-opacity="0.06" stroke-width="1.37143"/>
<rect x="1028.57" y="137.143" width="68.5714" height="68.5714" stroke="white" stroke-opacity="0.06" stroke-width="1.37143"/>
<rect x="1097.14" y="137.143" width="68.5714" height="68.5714" fill="white" fill-opacity="0.05" stroke="white" stroke-opacity="0.06" stroke-width="1.37143"/>
<rect x="1165.71" y="137.143" width="68.5714" height="68.5714" stroke="white" stroke-opacity="0.06" stroke-width="1.37143"/>
<rect x="1234.29" y="137.143" width="68.5714" height="68.5714" stroke="white" stroke-opacity="0.06" stroke-width="1.37143"/>
<rect x="1302.86" y="137.143" width="68.5714" height="68.5714" stroke="white" stroke-opacity="0.06" stroke-width="1.37143"/>
<rect x="1371.43" y="137.143" width="68.5714" height="68.5714" stroke="white" stroke-opacity="0.06" stroke-width="1.37143"/>
<rect y="205.715" width="68.5714" height="68.5714" stroke="white" stroke-opacity="0.06" stroke-width="1.37143"/>
<rect x="68.5715" y="205.715" width="68.5714" height="68.5714" stroke="white" stroke-opacity="0.06" stroke-width="1.37143"/>
<rect x="137.143" y="205.715" width="68.5714" height="68.5714" stroke="white" stroke-opacity="0.06" stroke-width="1.37143"/>
<rect x="205.714" y="205.715" width="68.5714" height="68.5714" stroke="white" stroke-opacity="0.06" stroke-width="1.37143"/>
<rect x="274.286" y="205.715" width="68.5714" height="68.5714" stroke="white" stroke-opacity="0.06" stroke-width="1.37143"/>
<rect x="342.857" y="205.715" width="68.5714" height="68.5714" stroke="white" stroke-opacity="0.06" stroke-width="1.37143"/>
<rect x="411.429" y="205.715" width="68.5714" height="68.5714" stroke="white" stroke-opacity="0.06" stroke-width="1.37143"/>
<rect x="480" y="205.715" width="68.5714" height="68.5714" stroke="white" stroke-opacity="0.06" stroke-width="1.37143"/>
<rect x="548.572" y="205.715" width="68.5714" height="68.5714" stroke="white" stroke-opacity="0.06" stroke-width="1.37143"/>
<rect x="617.143" y="205.715" width="68.5714" height="68.5714" stroke="white" stroke-opacity="0.06" stroke-width="1.37143"/>
<rect x="685.714" y="205.715" width="68.5714" height="68.5714" stroke="white" stroke-opacity="0.06" stroke-width="1.37143"/>
<rect x="754.286" y="205.715" width="68.5714" height="68.5714" stroke="white" stroke-opacity="0.06" stroke-width="1.37143"/>
<rect x="822.857" y="205.715" width="68.5714" height="68.5714" stroke="white" stroke-opacity="0.06" stroke-width="1.37143"/>
<rect x="891.428" y="205.715" width="68.5714" height="68.5714" stroke="white" stroke-opacity="0.06" stroke-width="1.37143"/>
<rect x="960" y="205.715" width="68.5714" height="68.5714" stroke="white" stroke-opacity="0.06" stroke-width="1.37143"/>
<rect x="1028.57" y="205.715" width="68.5714" height="68.5714" stroke="white" stroke-opacity="0.06" stroke-width="1.37143"/>
<rect x="1097.14" y="205.715" width="68.5714" height="68.5714" stroke="white" stroke-opacity="0.06" stroke-width="1.37143"/>
<rect x="1165.71" y="205.715" width="68.5714" height="68.5714" stroke="white" stroke-opacity="0.06" stroke-width="1.37143"/>
<rect x="1234.29" y="205.715" width="68.5714" height="68.5714" stroke="white" stroke-opacity="0.06" stroke-width="1.37143"/>
<rect x="1302.86" y="205.715" width="68.5714" height="68.5714" stroke="white" stroke-opacity="0.06" stroke-width="1.37143"/>
<rect x="1371.43" y="205.715" width="68.5714" height="68.5714" stroke="white" stroke-opacity="0.06" stroke-width="1.37143"/>
<rect y="274.286" width="68.5714" height="68.5714" stroke="white" stroke-opacity="0.06" stroke-width="1.37143"/>
<rect x="68.5715" y="274.286" width="68.5714" height="68.5714" stroke="white" stroke-opacity="0.06" stroke-width="1.37143"/>
<rect x="137.143" y="274.286" width="68.5714" height="68.5714" stroke="white" stroke-opacity="0.06" stroke-width="1.37143"/>
<rect x="205.714" y="274.286" width="68.5714" height="68.5714" fill="white" fill-opacity="0.05" stroke="white" stroke-opacity="0.06" stroke-width="1.37143"/>
<rect x="274.286" y="274.286" width="68.5714" height="68.5714" stroke="white" stroke-opacity="0.06" stroke-width="1.37143"/>
<rect x="342.857" y="274.286" width="68.5714" height="68.5714" stroke="white" stroke-opacity="0.06" stroke-width="1.37143"/>
<rect x="411.429" y="274.286" width="68.5714" height="68.5714" stroke="white" stroke-opacity="0.06" stroke-width="1.37143"/>
<rect x="480" y="274.286" width="68.5714" height="68.5714" stroke="white" stroke-opacity="0.06" stroke-width="1.37143"/>
<rect x="548.572" y="274.286" width="68.5714" height="68.5714" stroke="white" stroke-opacity="0.06" stroke-width="1.37143"/>
<rect x="617.143" y="274.286" width="68.5714" height="68.5714" stroke="white" stroke-opacity="0.06" stroke-width="1.37143"/>
<rect x="685.714" y="274.286" width="68.5714" height="68.5714" stroke="white" stroke-opacity="0.06" stroke-width="1.37143"/>
<rect x="754.286" y="274.286" width="68.5714" height="68.5714" stroke="white" stroke-opacity="0.06" stroke-width="1.37143"/>
<rect x="822.857" y="274.286" width="68.5714" height="68.5714" fill="white" fill-opacity="0.05" stroke="white" stroke-opacity="0.06" stroke-width="1.37143"/>
<rect x="891.428" y="274.286" width="68.5714" height="68.5714" stroke="white" stroke-opacity="0.06" stroke-width="1.37143"/>
<rect x="960" y="274.286" width="68.5714" height="68.5714" stroke="white" stroke-opacity="0.06" stroke-width="1.37143"/>
<rect x="1028.57" y="274.286" width="68.5714" height="68.5714" stroke="white" stroke-opacity="0.06" stroke-width="1.37143"/>
<rect x="1097.14" y="274.286" width="68.5714" height="68.5714" stroke="white" stroke-opacity="0.06" stroke-width="1.37143"/>
<rect x="1165.71" y="274.286" width="68.5714" height="68.5714" stroke="white" stroke-opacity="0.06" stroke-width="1.37143"/>
<rect x="1234.29" y="274.286" width="68.5714" height="68.5714" stroke="white" stroke-opacity="0.06" stroke-width="1.37143"/>
<rect x="1302.86" y="274.286" width="68.5714" height="68.5714" stroke="white" stroke-opacity="0.06" stroke-width="1.37143"/>
<rect x="1371.43" y="274.286" width="68.5714" height="68.5714" stroke="white" stroke-opacity="0.06" stroke-width="1.37143"/>
<rect y="342.858" width="68.5714" height="68.5714" stroke="white" stroke-opacity="0.06" stroke-width="1.37143"/>
<rect x="68.5715" y="342.858" width="68.5714" height="68.5714" stroke="white" stroke-opacity="0.06" stroke-width="1.37143"/>
<rect x="137.143" y="342.858" width="68.5714" height="68.5714" stroke="white" stroke-opacity="0.06" stroke-width="1.37143"/>
<rect x="205.714" y="342.858" width="68.5714" height="68.5714" stroke="white" stroke-opacity="0.06" stroke-width="1.37143"/>
<rect x="274.286" y="342.858" width="68.5714" height="68.5714" stroke="white" stroke-opacity="0.06" stroke-width="1.37143"/>
<rect x="342.857" y="342.858" width="68.5714" height="68.5714" stroke="white" stroke-opacity="0.06" stroke-width="1.37143"/>
<rect x="411.429" y="342.858" width="68.5714" height="68.5714" stroke="white" stroke-opacity="0.06" stroke-width="1.37143"/>
<rect x="480" y="342.858" width="68.5714" height="68.5714" stroke="white" stroke-opacity="0.06" stroke-width="1.37143"/>
<rect x="548.572" y="342.858" width="68.5714" height="68.5714" stroke="white" stroke-opacity="0.06" stroke-width="1.37143"/>
<rect x="617.143" y="342.858" width="68.5714" height="68.5714" stroke="white" stroke-opacity="0.06" stroke-width="1.37143"/>
<rect x="685.714" y="342.858" width="68.5714" height="68.5714" stroke="white" stroke-opacity="0.06" stroke-width="1.37143"/>
<rect x="754.286" y="342.858" width="68.5714" height="68.5714" stroke="white" stroke-opacity="0.06" stroke-width="1.37143"/>
<rect x="822.857" y="342.858" width="68.5714" height="68.5714" stroke="white" stroke-opacity="0.06" stroke-width="1.37143"/>
<rect x="891.428" y="342.858" width="68.5714" height="68.5714" stroke="white" stroke-opacity="0.06" stroke-width="1.37143"/>
<rect x="960" y="342.858" width="68.5714" height="68.5714" stroke="white" stroke-opacity="0.06" stroke-width="1.37143"/>
<rect x="1028.57" y="342.858" width="68.5714" height="68.5714" stroke="white" stroke-opacity="0.06" stroke-width="1.37143"/>
<rect x="1097.14" y="342.858" width="68.5714" height="68.5714" stroke="white" stroke-opacity="0.06" stroke-width="1.37143"/>
<rect x="1165.71" y="342.858" width="68.5714" height="68.5714" stroke="white" stroke-opacity="0.06" stroke-width="1.37143"/>
<rect x="1234.29" y="342.858" width="68.5714" height="68.5714" fill="white" fill-opacity="0.05" stroke="white" stroke-opacity="0.06" stroke-width="1.37143"/>
<rect x="1302.86" y="342.858" width="68.5714" height="68.5714" stroke="white" stroke-opacity="0.06" stroke-width="1.37143"/>
<rect x="1371.43" y="342.858" width="68.5714" height="68.5714" stroke="white" stroke-opacity="0.06" stroke-width="1.37143"/>
<rect y="411.428" width="68.5714" height="68.5714" stroke="white" stroke-opacity="0.06" stroke-width="1.37143"/>
<rect x="68.5715" y="411.428" width="68.5714" height="68.5714" stroke="white" stroke-opacity="0.06" stroke-width="1.37143"/>
<rect x="137.143" y="411.428" width="68.5714" height="68.5714" stroke="white" stroke-opacity="0.06" stroke-width="1.37143"/>
<rect x="205.714" y="411.428" width="68.5714" height="68.5714" stroke="white" stroke-opacity="0.06" stroke-width="1.37143"/>
<rect x="274.286" y="411.428" width="68.5714" height="68.5714" stroke="white" stroke-opacity="0.06" stroke-width="1.37143"/>
<rect x="342.857" y="411.428" width="68.5714" height="68.5714" stroke="white" stroke-opacity="0.06" stroke-width="1.37143"/>
<rect x="411.429" y="411.428" width="68.5714" height="68.5714" stroke="white" stroke-opacity="0.06" stroke-width="1.37143"/>
<rect x="480" y="411.428" width="68.5714" height="68.5714" stroke="white" stroke-opacity="0.06" stroke-width="1.37143"/>
<rect x="548.572" y="411.428" width="68.5714" height="68.5714" stroke="white" stroke-opacity="0.06" stroke-width="1.37143"/>
<rect x="617.143" y="411.428" width="68.5714" height="68.5714" stroke="white" stroke-opacity="0.06" stroke-width="1.37143"/>
<rect x="685.714" y="411.428" width="68.5714" height="68.5714" stroke="white" stroke-opacity="0.06" stroke-width="1.37143"/>
<rect x="754.286" y="411.428" width="68.5714" height="68.5714" stroke="white" stroke-opacity="0.06" stroke-width="1.37143"/>
<rect x="822.857" y="411.428" width="68.5714" height="68.5714" stroke="white" stroke-opacity="0.06" stroke-width="1.37143"/>
<rect x="891.428" y="411.428" width="68.5714" height="68.5714" stroke="white" stroke-opacity="0.06" stroke-width="1.37143"/>
<rect x="960" y="411.428" width="68.5714" height="68.5714" stroke="white" stroke-opacity="0.06" stroke-width="1.37143"/>
<rect x="1028.57" y="411.428" width="68.5714" height="68.5714" stroke="white" stroke-opacity="0.06" stroke-width="1.37143"/>
<rect x="1097.14" y="411.428" width="68.5714" height="68.5714" stroke="white" stroke-opacity="0.06" stroke-width="1.37143"/>
<rect x="1165.71" y="411.428" width="68.5714" height="68.5714" stroke="white" stroke-opacity="0.06" stroke-width="1.37143"/>
<rect x="1234.29" y="411.428" width="68.5714" height="68.5714" stroke="white" stroke-opacity="0.06" stroke-width="1.37143"/>
<rect x="1302.86" y="411.428" width="68.5714" height="68.5714" stroke="white" stroke-opacity="0.06" stroke-width="1.37143"/>
<rect x="1371.43" y="411.428" width="68.5714" height="68.5714" stroke="white" stroke-opacity="0.06" stroke-width="1.37143"/>
<rect y="480" width="68.5714" height="68.5714" stroke="white" stroke-opacity="0.06" stroke-width="1.37143"/>
<rect x="68.5715" y="480" width="68.5714" height="68.5714" stroke="white" stroke-opacity="0.06" stroke-width="1.37143"/>
<rect x="137.143" y="480" width="68.5714" height="68.5714" stroke="white" stroke-opacity="0.06" stroke-width="1.37143"/>
<rect x="205.714" y="480" width="68.5714" height="68.5714" stroke="white" stroke-opacity="0.06" stroke-width="1.37143"/>
<rect x="274.286" y="480" width="68.5714" height="68.5714" stroke="white" stroke-opacity="0.06" stroke-width="1.37143"/>
<rect x="342.857" y="480" width="68.5714" height="68.5714" stroke="white" stroke-opacity="0.06" stroke-width="1.37143"/>
<rect x="411.429" y="480" width="68.5714" height="68.5714" stroke="white" stroke-opacity="0.06" stroke-width="1.37143"/>
<rect x="480" y="480" width="68.5714" height="68.5714" stroke="white" stroke-opacity="0.06" stroke-width="1.37143"/>
<rect x="548.572" y="480" width="68.5714" height="68.5714" fill="white" fill-opacity="0.05" stroke="white" stroke-opacity="0.06" stroke-width="1.37143"/>
<rect x="617.143" y="480" width="68.5714" height="68.5714" stroke="white" stroke-opacity="0.06" stroke-width="1.37143"/>
<rect x="685.714" y="480" width="68.5714" height="68.5714" stroke="white" stroke-opacity="0.06" stroke-width="1.37143"/>
<rect x="754.286" y="480" width="68.5714" height="68.5714" stroke="white" stroke-opacity="0.06" stroke-width="1.37143"/>
<rect x="822.857" y="480" width="68.5714" height="68.5714" stroke="white" stroke-opacity="0.06" stroke-width="1.37143"/>
<rect x="891.428" y="480" width="68.5714" height="68.5714" stroke="white" stroke-opacity="0.06" stroke-width="1.37143"/>
<rect x="960" y="480" width="68.5714" height="68.5714" stroke="white" stroke-opacity="0.06" stroke-width="1.37143"/>
<rect x="1028.57" y="480" width="68.5714" height="68.5714" stroke="white" stroke-opacity="0.06" stroke-width="1.37143"/>
<rect x="1097.14" y="480" width="68.5714" height="68.5714" stroke="white" stroke-opacity="0.06" stroke-width="1.37143"/>
<rect x="1165.71" y="480" width="68.5714" height="68.5714" stroke="white" stroke-opacity="0.06" stroke-width="1.37143"/>
<rect x="1234.29" y="480" width="68.5714" height="68.5714" stroke="white" stroke-opacity="0.06" stroke-width="1.37143"/>
<rect x="1302.86" y="480" width="68.5714" height="68.5714" stroke="white" stroke-opacity="0.06" stroke-width="1.37143"/>
<rect x="1371.43" y="480" width="68.5714" height="68.5714" stroke="white" stroke-opacity="0.06" stroke-width="1.37143"/>
<rect y="548.571" width="68.5714" height="68.5714" stroke="white" stroke-opacity="0.06" stroke-width="1.37143"/>
<rect x="68.5715" y="548.571" width="68.5714" height="68.5714" stroke="white" stroke-opacity="0.06" stroke-width="1.37143"/>
<rect x="137.143" y="548.571" width="68.5714" height="68.5714" stroke="white" stroke-opacity="0.06" stroke-width="1.37143"/>
<rect x="205.714" y="548.571" width="68.5714" height="68.5714" stroke="white" stroke-opacity="0.06" stroke-width="1.37143"/>
<rect x="274.286" y="548.571" width="68.5714" height="68.5714" fill="white" fill-opacity="0.05" stroke="white" stroke-opacity="0.06" stroke-width="1.37143"/>
<rect x="342.857" y="548.571" width="68.5714" height="68.5714" stroke="white" stroke-opacity="0.06" stroke-width="1.37143"/>
<rect x="411.429" y="548.571" width="68.5714" height="68.5714" stroke="white" stroke-opacity="0.06" stroke-width="1.37143"/>
<rect x="480" y="548.571" width="68.5714" height="68.5714" stroke="white" stroke-opacity="0.06" stroke-width="1.37143"/>
<rect x="548.572" y="548.571" width="68.5714" height="68.5714" stroke="white" stroke-opacity="0.06" stroke-width="1.37143"/>
<rect x="617.143" y="548.571" width="68.5714" height="68.5714" stroke="white" stroke-opacity="0.06" stroke-width="1.37143"/>
<rect x="685.714" y="548.571" width="68.5714" height="68.5714" stroke="white" stroke-opacity="0.06" stroke-width="1.37143"/>
<rect x="754.286" y="548.571" width="68.5714" height="68.5714" stroke="white" stroke-opacity="0.06" stroke-width="1.37143"/>
<rect x="822.857" y="548.571" width="68.5714" height="68.5714" stroke="white" stroke-opacity="0.06" stroke-width="1.37143"/>
<rect x="891.428" y="548.571" width="68.5714" height="68.5714" stroke="white" stroke-opacity="0.06" stroke-width="1.37143"/>
<rect x="960" y="548.571" width="68.5714" height="68.5714" stroke="white" stroke-opacity="0.06" stroke-width="1.37143"/>
<rect x="1028.57" y="548.571" width="68.5714" height="68.5714" stroke="white" stroke-opacity="0.06" stroke-width="1.37143"/>
<rect x="1097.14" y="548.571" width="68.5714" height="68.5714" stroke="white" stroke-opacity="0.06" stroke-width="1.37143"/>
<rect x="1165.71" y="548.571" width="68.5714" height="68.5714" stroke="white" stroke-opacity="0.06" stroke-width="1.37143"/>
<rect x="1234.29" y="548.571" width="68.5714" height="68.5714" stroke="white" stroke-opacity="0.06" stroke-width="1.37143"/>
<rect x="1302.86" y="548.571" width="68.5714" height="68.5714" stroke="white" stroke-opacity="0.06" stroke-width="1.37143"/>
<rect x="1371.43" y="548.571" width="68.5714" height="68.5714" stroke="white" stroke-opacity="0.06" stroke-width="1.37143"/>
<rect y="617.143" width="68.5714" height="68.5714" stroke="white" stroke-opacity="0.06" stroke-width="1.37143"/>
<rect x="68.5715" y="617.143" width="68.5714" height="68.5714" stroke="white" stroke-opacity="0.06" stroke-width="1.37143"/>
<rect x="137.143" y="617.143" width="68.5714" height="68.5714" stroke="white" stroke-opacity="0.06" stroke-width="1.37143"/>
<rect x="205.714" y="617.143" width="68.5714" height="68.5714" stroke="white" stroke-opacity="0.06" stroke-width="1.37143"/>
<rect x="274.286" y="617.143" width="68.5714" height="68.5714" stroke="white" stroke-opacity="0.06" stroke-width="1.37143"/>
<rect x="342.857" y="617.143" width="68.5714" height="68.5714" stroke="white" stroke-opacity="0.06" stroke-width="1.37143"/>
<rect x="411.429" y="617.143" width="68.5714" height="68.5714" stroke="white" stroke-opacity="0.06" stroke-width="1.37143"/>
<rect x="480" y="617.143" width="68.5714" height="68.5714" stroke="white" stroke-opacity="0.06" stroke-width="1.37143"/>
<rect x="548.572" y="617.143" width="68.5714" height="68.5714" stroke="white" stroke-opacity="0.06" stroke-width="1.37143"/>
<rect x="617.143" y="617.143" width="68.5714" height="68.5714" stroke="white" stroke-opacity="0.06" stroke-width="1.37143"/>
<rect x="685.714" y="617.143" width="68.5714" height="68.5714" stroke="white" stroke-opacity="0.06" stroke-width="1.37143"/>
<rect x="754.286" y="617.143" width="68.5714" height="68.5714" stroke="white" stroke-opacity="0.06" stroke-width="1.37143"/>
<rect x="822.857" y="617.143" width="68.5714" height="68.5714" stroke="white" stroke-opacity="0.06" stroke-width="1.37143"/>
<rect x="891.428" y="617.143" width="68.5714" height="68.5714" stroke="white" stroke-opacity="0.06" stroke-width="1.37143"/>
<rect x="960" y="617.143" width="68.5714" height="68.5714" stroke="white" stroke-opacity="0.06" stroke-width="1.37143"/>
<rect x="1028.57" y="617.143" width="68.5714" height="68.5714" stroke="white" stroke-opacity="0.06" stroke-width="1.37143"/>
<rect x="1097.14" y="617.143" width="68.5714" height="68.5714" stroke="white" stroke-opacity="0.06" stroke-width="1.37143"/>
<rect x="1165.71" y="617.143" width="68.5714" height="68.5714" stroke="white" stroke-opacity="0.06" stroke-width="1.37143"/>
<rect x="1234.29" y="617.143" width="68.5714" height="68.5714" stroke="white" stroke-opacity="0.06" stroke-width="1.37143"/>
<rect x="1302.86" y="617.143" width="68.5714" height="68.5714" stroke="white" stroke-opacity="0.06" stroke-width="1.37143"/>
<rect x="1371.43" y="617.143" width="68.5714" height="68.5714" stroke="white" stroke-opacity="0.06" stroke-width="1.37143"/>
<rect y="685.714" width="68.5714" height="68.5714" stroke="white" stroke-opacity="0.06" stroke-width="1.37143"/>
<rect x="68.5715" y="685.714" width="68.5714" height="68.5714" stroke="white" stroke-opacity="0.06" stroke-width="1.37143"/>
<rect x="137.143" y="685.714" width="68.5714" height="68.5714" stroke="white" stroke-opacity="0.06" stroke-width="1.37143"/>
<rect x="205.714" y="685.714" width="68.5714" height="68.5714" stroke="white" stroke-opacity="0.06" stroke-width="1.37143"/>
<rect x="274.286" y="685.714" width="68.5714" height="68.5714" stroke="white" stroke-opacity="0.06" stroke-width="1.37143"/>
<rect x="342.857" y="685.714" width="68.5714" height="68.5714" stroke="white" stroke-opacity="0.06" stroke-width="1.37143"/>
<rect x="411.429" y="685.714" width="68.5714" height="68.5714" stroke="white" stroke-opacity="0.06" stroke-width="1.37143"/>
<rect x="480" y="685.714" width="68.5714" height="68.5714" stroke="white" stroke-opacity="0.06" stroke-width="1.37143"/>
<rect x="548.572" y="685.714" width="68.5714" height="68.5714" stroke="white" stroke-opacity="0.06" stroke-width="1.37143"/>
<rect x="617.143" y="685.714" width="68.5714" height="68.5714" stroke="white" stroke-opacity="0.06" stroke-width="1.37143"/>
<rect x="685.714" y="685.714" width="68.5714" height="68.5714" stroke="white" stroke-opacity="0.06" stroke-width="1.37143"/>
<rect x="754.286" y="685.714" width="68.5714" height="68.5714" stroke="white" stroke-opacity="0.06" stroke-width="1.37143"/>
<rect x="822.857" y="685.714" width="68.5714" height="68.5714" stroke="white" stroke-opacity="0.06" stroke-width="1.37143"/>
<rect x="891.428" y="685.714" width="68.5714" height="68.5714" stroke="white" stroke-opacity="0.06" stroke-width="1.37143"/>
<rect x="960" y="685.714" width="68.5714" height="68.5714" stroke="white" stroke-opacity="0.06" stroke-width="1.37143"/>
<rect x="1028.57" y="685.714" width="68.5714" height="68.5714" stroke="white" stroke-opacity="0.06" stroke-width="1.37143"/>
<rect x="1097.14" y="685.714" width="68.5714" height="68.5714" stroke="white" stroke-opacity="0.06" stroke-width="1.37143"/>
<rect x="1165.71" y="685.714" width="68.5714" height="68.5714" stroke="white" stroke-opacity="0.06" stroke-width="1.37143"/>
<rect x="1234.29" y="685.714" width="68.5714" height="68.5714" stroke="white" stroke-opacity="0.06" stroke-width="1.37143"/>
<rect x="1302.86" y="685.714" width="68.5714" height="68.5714" stroke="white" stroke-opacity="0.06" stroke-width="1.37143"/>
<rect x="1371.43" y="685.714" width="68.5714" height="68.5714" stroke="white" stroke-opacity="0.06" stroke-width="1.37143"/>
<rect y="754.286" width="68.5714" height="68.5714" stroke="white" stroke-opacity="0.06" stroke-width="1.37143"/>
<rect x="68.5715" y="754.286" width="68.5714" height="68.5714" stroke="white" stroke-opacity="0.06" stroke-width="1.37143"/>
<rect x="137.143" y="754.286" width="68.5714" height="68.5714" stroke="white" stroke-opacity="0.06" stroke-width="1.37143"/>
<rect x="205.714" y="754.286" width="68.5714" height="68.5714" stroke="white" stroke-opacity="0.06" stroke-width="1.37143"/>
<rect x="274.286" y="754.286" width="68.5714" height="68.5714" stroke="white" stroke-opacity="0.06" stroke-width="1.37143"/>
<rect x="342.857" y="754.286" width="68.5714" height="68.5714" stroke="white" stroke-opacity="0.06" stroke-width="1.37143"/>
<rect x="411.429" y="754.286" width="68.5714" height="68.5714" stroke="white" stroke-opacity="0.06" stroke-width="1.37143"/>
<rect x="480" y="754.286" width="68.5714" height="68.5714" stroke="white" stroke-opacity="0.06" stroke-width="1.37143"/>
<rect x="548.572" y="754.286" width="68.5714" height="68.5714" stroke="white" stroke-opacity="0.06" stroke-width="1.37143"/>
<rect x="617.143" y="754.286" width="68.5714" height="68.5714" stroke="white" stroke-opacity="0.06" stroke-width="1.37143"/>
<rect x="685.714" y="754.286" width="68.5714" height="68.5714" stroke="white" stroke-opacity="0.06" stroke-width="1.37143"/>
<rect x="754.286" y="754.286" width="68.5714" height="68.5714" stroke="white" stroke-opacity="0.06" stroke-width="1.37143"/>
<rect x="822.857" y="754.286" width="68.5714" height="68.5714" stroke="white" stroke-opacity="0.06" stroke-width="1.37143"/>
<rect x="891.428" y="754.286" width="68.5714" height="68.5714" stroke="white" stroke-opacity="0.06" stroke-width="1.37143"/>
<rect x="960" y="754.286" width="68.5714" height="68.5714" stroke="white" stroke-opacity="0.06" stroke-width="1.37143"/>
<rect x="1028.57" y="754.286" width="68.5714" height="68.5714" stroke="white" stroke-opacity="0.06" stroke-width="1.37143"/>
<rect x="1097.14" y="754.286" width="68.5714" height="68.5714" stroke="white" stroke-opacity="0.06" stroke-width="1.37143"/>
<rect x="1165.71" y="754.286" width="68.5714" height="68.5714" stroke="white" stroke-opacity="0.06" stroke-width="1.37143"/>
<rect x="1234.29" y="754.286" width="68.5714" height="68.5714" stroke="white" stroke-opacity="0.06" stroke-width="1.37143"/>
<rect x="1302.86" y="754.286" width="68.5714" height="68.5714" stroke="white" stroke-opacity="0.06" stroke-width="1.37143"/>
<rect x="1371.43" y="754.286" width="68.5714" height="68.5714" stroke="white" stroke-opacity="0.06" stroke-width="1.37143"/>
<rect y="822.857" width="68.5714" height="68.5714" stroke="white" stroke-opacity="0.06" stroke-width="1.37143"/>
<rect x="68.5715" y="822.857" width="68.5714" height="68.5714" stroke="white" stroke-opacity="0.06" stroke-width="1.37143"/>
<rect x="137.143" y="822.857" width="68.5714" height="68.5714" stroke="white" stroke-opacity="0.06" stroke-width="1.37143"/>
<rect x="205.714" y="822.857" width="68.5714" height="68.5714" stroke="white" stroke-opacity="0.06" stroke-width="1.37143"/>
<rect x="274.286" y="822.857" width="68.5714" height="68.5714" stroke="white" stroke-opacity="0.06" stroke-width="1.37143"/>
<rect x="342.857" y="822.857" width="68.5714" height="68.5714" stroke="white" stroke-opacity="0.06" stroke-width="1.37143"/>
<rect x="411.429" y="822.857" width="68.5714" height="68.5714" stroke="white" stroke-opacity="0.06" stroke-width="1.37143"/>
<rect x="480" y="822.857" width="68.5714" height="68.5714" stroke="white" stroke-opacity="0.06" stroke-width="1.37143"/>
<rect x="548.572" y="822.857" width="68.5714" height="68.5714" stroke="white" stroke-opacity="0.06" stroke-width="1.37143"/>
<rect x="617.143" y="822.857" width="68.5714" height="68.5714" stroke="white" stroke-opacity="0.06" stroke-width="1.37143"/>
<rect x="685.714" y="822.857" width="68.5714" height="68.5714" stroke="white" stroke-opacity="0.06" stroke-width="1.37143"/>
<rect x="754.286" y="822.857" width="68.5714" height="68.5714" stroke="white" stroke-opacity="0.06" stroke-width="1.37143"/>
<rect x="822.857" y="822.857" width="68.5714" height="68.5714" stroke="white" stroke-opacity="0.06" stroke-width="1.37143"/>
<rect x="891.428" y="822.857" width="68.5714" height="68.5714" stroke="white" stroke-opacity="0.06" stroke-width="1.37143"/>
<rect x="960" y="822.857" width="68.5714" height="68.5714" stroke="white" stroke-opacity="0.06" stroke-width="1.37143"/>
<rect x="1028.57" y="822.857" width="68.5714" height="68.5714" stroke="white" stroke-opacity="0.06" stroke-width="1.37143"/>
<rect x="1097.14" y="822.857" width="68.5714" height="68.5714" stroke="white" stroke-opacity="0.06" stroke-width="1.37143"/>
<rect x="1165.71" y="822.857" width="68.5714" height="68.5714" stroke="white" stroke-opacity="0.06" stroke-width="1.37143"/>
<rect x="1234.29" y="822.857" width="68.5714" height="68.5714" stroke="white" stroke-opacity="0.06" stroke-width="1.37143"/>
<rect x="1302.86" y="822.857" width="68.5714" height="68.5714" stroke="white" stroke-opacity="0.06" stroke-width="1.37143"/>
<rect x="1371.43" y="822.857" width="68.5714" height="68.5714" stroke="white" stroke-opacity="0.06" stroke-width="1.37143"/>
<g filter="url(#filter0_f_62_193)">
<rect x="-116.572" y="-966.342" width="1738.97" height="1368.75" fill="url(#paint0_radial_62_193)"/>
</g>
<rect x="-309.257" y="-320.911" width="1978.97" height="1242.6" fill="url(#paint1_radial_62_193)" stroke="#0A101F" stroke-width="1.37143"/>
</g>
<defs>
<filter id="filter0_f_62_193" x="-528" y="-1377.77" width="2561.83" height="2191.6" filterUnits="userSpaceOnUse" color-interpolation-filters="sRGB">
<feFlood flood-opacity="0" result="BackgroundImageFix"/>
<feBlend mode="normal" in="SourceGraphic" in2="BackgroundImageFix" result="shape"/>
<feGaussianBlur stdDeviation="205.714" result="effect1_foregroundBlur_62_193"/>
</filter>
<radialGradient id="paint0_radial_62_193" cx="0" cy="0" r="1" gradientUnits="userSpaceOnUse" gradientTransform="translate(752.914 -281.968) rotate(90) scale(684.374 869.486)">
<stop offset="0.015625" stop-color="#4D76F4" stop-opacity="0.69"/>
<stop offset="0.223958" stop-color="#4D76F4" stop-opacity="0.34"/>
<stop offset="0.911458" stop-color="#4D76F4" stop-opacity="0"/>
</radialGradient>
<radialGradient id="paint1_radial_62_193" cx="0" cy="0" r="1" gradientUnits="userSpaceOnUse" gradientTransform="translate(680.229 300.387) rotate(90) scale(620.612 988.8)">
<stop stop-color="#0A101F" stop-opacity="0"/>
<stop offset="0.833333" stop-color="#0A101F"/>
</radialGradient>
<clipPath id="clip0_62_193">
<rect width="1440" height="921" fill="white"/>
</clipPath>
</defs>
</svg>
